<svg width="50" height="50" viewBox="0 0 50 50" fill="none" xmlns="http://www.w3.org/2000/svg">
<path d="M38.5417 25.0002C38.5417 32.4791 32.479 38.5418 25 38.5418V41.6668C34.2048 41.6668 41.6667 34.205 41.6667 25.0002H38.5417ZM25 38.5418C17.5212 38.5418 11.4583 32.4791 11.4583 25.0002H8.33334C8.33334 34.205 15.7953 41.6668 25 41.6668V38.5418ZM11.4583 25.0002C11.4583 17.5213 17.5212 11.4585 25 11.4585V8.3335C15.7953 8.3335 8.33334 15.7954 8.33334 25.0002H11.4583ZM25 11.4585C32.479 11.4585 38.5417 17.5213 38.5417 25.0002H41.6667C41.6667 15.7954 34.2048 8.3335 25 8.3335V11.4585Z" fill="#001898"/>
<path d="M28.125 20.8335C28.125 22.5593 26.7258 23.9585 25 23.9585V27.0835C28.4519 27.0835 31.25 24.2854 31.25 20.8335H28.125ZM25 23.9585C23.2742 23.9585 21.875 22.5593 21.875 20.8335H18.75C18.75 24.2854 21.5481 27.0835 25 27.0835V23.9585ZM21.875 20.8335C21.875 19.1076 23.2742 17.7085 25 17.7085V14.5835C21.5481 14.5835 18.75 17.3817 18.75 20.8335H21.875ZM25 17.7085C26.7258 17.7085 28.125 19.1076 28.125 20.8335H31.25C31.25 17.3817 28.4519 14.5835 25 14.5835V17.7085Z" fill="#001898"/>
<path d="M13.7948 34.4159C13.2421 35.0786 13.3314 36.064 13.9942 36.6165C14.657 37.1692 15.6423 37.0798 16.1949 36.4171L13.7948 34.4159ZM33.8054 36.4171C34.3579 37.0798 35.3433 37.1692 36.006 36.6165C36.6688 36.064 36.7581 35.0786 36.2054 34.4159L33.8054 36.4171ZM16.1949 36.4171C18.2992 33.8934 21.4619 32.2915 25.0002 32.2915V29.1665C20.4958 29.1665 16.4674 31.2105 13.7948 34.4159L16.1949 36.4171ZM25.0002 32.2915C28.5383 32.2915 31.701 33.8934 33.8054 36.4171L36.2054 34.4159C33.5329 31.2105 29.5046 29.1665 25.0002 29.1665V32.2915Z" fill="#001898"/>
</svg>
