<svg width="25" height="24" viewBox="0 0 25 24" fill="none" xmlns="http://www.w3.org/2000/svg">
<path d="M18.4705 17.25H5.97034C5.41806 17.25 4.97034 16.8023 4.97034 16.25V12.75C4.97034 11.6454 5.86577 10.75 6.97034 10.75H17.4705C18.5751 10.75 19.4705 11.6454 19.4705 12.75V16.25C19.4705 16.8023 19.0228 17.25 18.4705 17.25Z" stroke="#AEAEAE" stroke-width="1.5" stroke-linecap="round" stroke-linejoin="round"/>
<path d="M8.72034 14C8.72034 14.2761 8.49648 14.5 8.22034 14.5C7.9442 14.5 7.72034 14.2761 7.72034 14C7.72034 13.7239 7.9442 13.5 8.22034 13.5C8.49648 13.5 8.72034 13.7239 8.72034 14Z" stroke="#AEAEAE" stroke-linecap="round" stroke-linejoin="round"/>
<path d="M16.7203 14C16.7203 14.2761 16.4964 14.5 16.2203 14.5C15.9442 14.5 15.7203 14.2761 15.7203 14C15.7203 13.7239 15.9442 13.5 16.2203 13.5C16.4964 13.5 16.7203 13.7239 16.7203 14Z" stroke="#AEAEAE" stroke-linecap="round" stroke-linejoin="round"/>
<path d="M18.4705 10.75H5.97034L6.69181 6.4212C6.85254 5.45683 7.68691 4.75 8.66459 4.75H15.7763C16.754 4.75 17.5883 5.45683 17.7491 6.4212L18.4705 10.75Z" stroke="#AEAEAE" stroke-width="1.5" stroke-linecap="round" stroke-linejoin="round"/>
<path d="M6.97034 17.75V19.25" stroke="#AEAEAE" stroke-width="1.5" stroke-linecap="round" stroke-linejoin="round"/>
<path d="M17.4703 17.75V19.25" stroke="#AEAEAE" stroke-width="1.5" stroke-linecap="round" stroke-linejoin="round"/>
</svg>
