<svg width="112" height="58" viewBox="0 0 112 58" fill="none" xmlns="http://www.w3.org/2000/svg">
<path d="M 109.691406 49.21875 C 110.257812 48.703125 110.257812 47.875 109.691406 47.363281 L 100.472656 39.011719 C 99.90625 38.5 98.988281 38.5 98.421875 39.011719 C 97.855469 39.523438 97.855469 40.355469 98.421875 40.867188 L 106.617188 48.289062 L 98.421875 55.710938 C 97.855469 56.226562 97.855469 57.054688 98.421875 57.570312 C 98.988281 58.082031 99.90625 58.082031 100.472656 57.570312 Z M 2.027344 49.601562 L 108.667969 49.601562 L 108.667969 46.976562 L 2.027344 46.976562 Z M 2.027344 49.601562 " fill="#001898"/>
<path d="M 22.066406 27.875 C 20.683594 26.554688 19.988281 24.300781 19.988281 21.121094 C 19.988281 18.257812 20.644531 15.816406 21.957031 13.800781 C 22.820312 12.457031 23.835938 11.785156 24.996094 11.785156 C 26.109375 11.785156 26.664062 12.914062 26.664062 15.175781 C 26.664062 16.585938 26.394531 18.390625 25.851562 20.585938 C 25.332031 22.757812 24.527344 24.984375 23.4375 27.269531 C 24.082031 27.917969 24.847656 28.246094 25.738281 28.246094 C 25.613281 28.691406 25.242188 28.917969 24.625 28.917969 C 24.03125 28.917969 23.4375 28.769531 22.84375 28.480469 C 21.660156 30.742188 20.335938 32.566406 18.875 33.953125 C 17.417969 35.34375 15.921875 36.039062 14.386719 36.039062 C 11.246094 36.039062 9.679688 34.539062 9.679688 31.535156 C 9.679688 29.992188 10.035156 28.132812 10.753906 25.960938 C 11.46875 23.789062 12.1875 21.605469 12.90625 19.410156 C 13.621094 17.191406 13.980469 15.289062 13.980469 13.699219 C 13.980469 12.085938 13.523438 10.84375 12.609375 9.96875 C 11.691406 9.097656 10.433594 8.660156 8.824219 8.660156 C 6.351562 8.660156 4.335938 9.800781 2.777344 12.085938 C 1.566406 13.898438 0.960938 15.816406 0.960938 17.832031 C 0.960938 20.382812 1.789062 22.007812 3.445312 22.703125 C 3.941406 22.902344 4.472656 23.003906 5.042969 23.003906 C 6.945312 23.003906 8.390625 22.039062 9.382812 20.113281 C 9.429688 20.023438 9.503906 19.980469 9.605469 19.980469 C 9.726562 19.957031 9.824219 19.980469 9.898438 20.046875 C 10 20.113281 10.023438 20.191406 9.972656 20.28125 C 9.503906 21.335938 8.847656 22.1875 8.007812 22.835938 C 7.167969 23.460938 6.179688 23.777344 5.042969 23.777344 C 2.816406 23.777344 1.308594 22.757812 0.515625 20.71875 C 0.195312 19.847656 0.0351562 18.859375 0.0351562 17.761719 C 0.0351562 16.664062 0.292969 15.433594 0.8125 14.066406 C 1.777344 11.492188 3.324219 9.679688 5.449219 8.625 C 6.511719 8.109375 7.636719 7.851562 8.824219 7.851562 C 11.101562 7.851562 12.84375 8.558594 14.054688 9.96875 C 15.265625 11.359375 15.871094 13.207031 15.871094 15.511719 C 15.871094 17.191406 15.550781 19.140625 14.90625 21.359375 C 14.289062 23.574219 13.660156 25.703125 13.015625 27.742188 C 12.375 29.777344 12.050781 31.3125 12.050781 32.34375 C 12.050781 33.371094 12.210938 34.113281 12.535156 34.558594 C 12.878906 34.984375 13.484375 35.199219 14.351562 35.199219 C 15.761719 35.199219 17.121094 34.527344 18.429688 33.183594 C 19.765625 31.839844 20.976562 30.070312 22.066406 27.875 Z M 25.664062 14.90625 C 25.664062 13.542969 25.378906 12.859375 24.8125 12.859375 C 24.265625 12.859375 23.746094 13.375 23.253906 14.402344 C 22.3125 16.308594 21.84375 18.636719 21.84375 21.390625 C 21.84375 23.496094 22.152344 25.132812 22.769531 26.296875 C 24.429688 22.445312 25.378906 18.949219 25.628906 15.816406 C 25.652344 15.5 25.664062 15.199219 25.664062 14.90625 Z M 30.773438 30.394531 C 30.773438 33.105469 31.839844 34.457031 33.964844 34.457031 C 34.753906 34.457031 35.585938 34.144531 36.449219 33.519531 C 37.339844 32.867188 38.144531 32.097656 38.859375 31.199219 C 40.441406 29.140625 41.554688 27.460938 42.199219 26.160156 L 42.679688 25.222656 L 43.683594 25.222656 C 43.261719 26.117188 42.644531 27.226562 41.828125 28.546875 C 41.011719 29.84375 40.234375 30.941406 39.492188 31.839844 C 38.75 32.734375 37.871094 33.550781 36.859375 34.289062 C 35.84375 35.007812 34.878906 35.367188 33.964844 35.367188 C 30.304688 35.367188 28.476562 33.507812 28.476562 29.789062 C 28.476562 28.066406 29.03125 26.339844 30.144531 24.617188 C 31.675781 22.21875 33.570312 21.023438 35.820312 21.023438 C 37.402344 21.023438 38.191406 21.804688 38.191406 23.375 C 38.191406 24.539062 37.699219 25.746094 36.710938 27 C 35.324219 28.703125 33.703125 29.566406 31.851562 29.585938 C 31.578125 29.585938 31.40625 29.476562 31.332031 29.25 L 31.292969 29.117188 C 32.578125 29.117188 33.804688 28.355469 34.964844 26.832031 C 36.152344 25.289062 36.746094 24 36.746094 22.96875 C 36.746094 22.277344 36.449219 21.929688 35.855469 21.929688 C 34.546875 21.929688 33.320312 22.96875 32.183594 25.054688 C 31.246094 26.820312 30.773438 28.601562 30.773438 30.394531 Z M 43.550781 30.527344 C 43.550781 33.148438 44.550781 34.457031 46.554688 34.457031 C 47.347656 34.457031 48.175781 34.144531 49.039062 33.519531 C 49.929688 32.867188 50.734375 32.097656 51.453125 31.199219 C 53.035156 29.140625 54.148438 27.460938 54.789062 26.160156 L 55.273438 25.222656 L 56.273438 25.222656 C 55.851562 26.117188 55.234375 27.226562 54.417969 28.546875 C 53.601562 29.84375 52.824219 30.941406 52.082031 31.839844 C 51.339844 32.734375 50.460938 33.550781 49.449219 34.289062 C 48.433594 35.007812 47.46875 35.367188 46.554688 35.367188 C 43.984375 35.367188 42.351562 34.300781 41.660156 32.175781 C 41.4375 31.503906 41.324219 30.664062 41.324219 29.65625 C 41.324219 28.625 41.671875 27.371094 42.363281 25.894531 C 43.378906 23.699219 44.761719 22.21875 46.519531 21.457031 C 47.210938 21.167969 47.890625 21.023438 48.558594 21.023438 C 49.25 21.023438 49.796875 21.191406 50.191406 21.527344 C 50.660156 21.929688 50.894531 22.398438 50.894531 22.9375 C 50.894531 23.453125 50.832031 23.933594 50.710938 24.382812 C 50.585938 24.828125 50.328125 25.230469 49.929688 25.589844 C 49.558594 25.925781 49.140625 26.09375 48.671875 26.09375 C 48.472656 26.09375 48.324219 25.972656 48.226562 25.726562 C 48.421875 25.726562 48.683594 25.410156 49.003906 24.785156 C 49.351562 24.132812 49.523438 23.496094 49.523438 22.871094 C 49.523438 22.242188 49.226562 21.929688 48.632812 21.929688 C 47.347656 21.929688 46.171875 22.902344 45.109375 24.851562 C 44.070312 26.800781 43.550781 28.691406 43.550781 30.527344 Z M 54.210938 20.617188 C 54.210938 20.371094 54.382812 20.25 54.730469 20.25 L 56.65625 20.25 C 56.78125 19.800781 56.941406 19.242188 57.140625 18.570312 L 57.660156 16.824219 C 57.808594 16.308594 57.929688 15.835938 58.03125 15.410156 C 58.152344 14.984375 58.375 14.773438 58.699219 14.773438 C 59.117188 14.773438 59.414062 15.066406 59.589844 15.648438 C 59.664062 15.894531 59.699219 16.195312 59.699219 16.554688 C 59.699219 16.914062 59.625 17.371094 59.476562 17.929688 L 58.773438 20.25 L 61.070312 20.25 C 61.292969 20.25 61.441406 20.316406 61.515625 20.449219 C 61.617188 20.585938 61.617188 20.71875 61.515625 20.855469 C 61.441406 20.964844 61.292969 21.023438 61.070312 21.023438 L 58.550781 21.023438 C 57.015625 26.238281 56.25 29.933594 56.25 32.105469 C 56.25 33.699219 56.644531 34.492188 57.4375 34.492188 C 58.078125 34.492188 58.980469 33.71875 60.144531 32.175781 C 61.308594 30.628906 62.308594 29.082031 63.148438 27.539062 L 64.410156 25.222656 L 65.410156 25.222656 C 65.261719 25.488281 65.066406 25.859375 64.816406 26.328125 C 64.59375 26.777344 64.136719 27.59375 63.445312 28.78125 C 62.753906 29.945312 62.085938 30.976562 61.441406 31.871094 C 60.824219 32.769531 60.121094 33.585938 59.328125 34.324219 C 58.5625 35.042969 57.84375 35.398438 57.175781 35.398438 C 56.507812 35.398438 55.929688 35.210938 55.433594 34.828125 C 54.964844 34.425781 54.667969 33.867188 54.542969 33.148438 C 54.394531 32.410156 54.320312 31.660156 54.320312 30.898438 C 54.320312 29.128906 55.011719 25.835938 56.398438 21.023438 L 54.730469 21.023438 C 54.53125 21.023438 54.394531 20.976562 54.320312 20.886719 C 54.246094 20.777344 54.210938 20.6875 54.210938 20.617188 Z M 74.742188 34.492188 C 75.386719 34.492188 76.289062 33.71875 77.449219 32.175781 C 78.613281 30.628906 79.613281 29.082031 80.457031 27.539062 L 81.714844 25.222656 L 82.71875 25.222656 C 82.570312 25.488281 82.371094 25.859375 82.125 26.328125 C 81.902344 26.777344 81.445312 27.59375 80.753906 28.78125 C 80.058594 29.945312 79.390625 30.976562 78.75 31.871094 C 78.132812 32.769531 77.425781 33.585938 76.636719 34.324219 C 75.867188 35.042969 75.140625 35.398438 74.445312 35.398438 C 73.753906 35.398438 73.183594 35.210938 72.738281 34.828125 C 72.195312 34.335938 71.925781 33.472656 71.925781 32.242188 C 71.925781 31.011719 72.160156 29.386719 72.628906 27.371094 L 72.371094 27.371094 C 69.527344 32.65625 67.164062 35.296875 65.285156 35.296875 C 63.628906 35.296875 62.800781 34.324219 62.800781 32.375 C 62.800781 30.964844 63.46875 28.15625 64.800781 23.945312 C 65.097656 22.980469 65.320312 22.265625 65.46875 21.792969 C 65.617188 21.300781 65.855469 21.054688 66.175781 21.054688 C 66.621094 21.054688 66.941406 21.347656 67.140625 21.929688 C 67.238281 22.175781 67.289062 22.488281 67.289062 22.871094 C 67.289062 23.226562 67.226562 23.628906 67.101562 24.078125 C 66.980469 24.503906 66.71875 25.332031 66.324219 26.566406 C 65.261719 29.878906 64.726562 32.105469 64.726562 33.25 C 64.726562 33.988281 64.976562 34.359375 65.46875 34.359375 C 66.089844 34.359375 66.816406 33.855469 67.660156 32.847656 C 68.546875 31.792969 69.277344 30.773438 69.847656 29.789062 C 70.414062 28.804688 70.875 27.996094 71.21875 27.371094 C 71.566406 26.742188 71.910156 26.09375 72.257812 25.421875 C 72.605469 24.726562 72.875 24.15625 73.074219 23.710938 C 73.296875 23.261719 73.507812 22.835938 73.703125 22.433594 C 73.902344 22.007812 74 21.78125 74 21.761719 C 74.222656 21.289062 74.472656 21.054688 74.742188 21.054688 C 75.1875 21.054688 75.507812 21.347656 75.707031 21.929688 C 75.804688 22.199219 75.855469 22.523438 75.855469 22.902344 C 75.855469 23.285156 75.804688 23.6875 75.707031 24.113281 C 75.609375 24.515625 75.449219 25.121094 75.226562 25.925781 C 75.003906 26.734375 74.828125 27.394531 74.707031 27.910156 C 74.582031 28.421875 74.433594 29.050781 74.261719 29.789062 C 74.015625 31.019531 73.890625 32.117188 73.890625 33.082031 C 73.890625 34.023438 74.175781 34.492188 74.742188 34.492188 Z M 81.21875 35.296875 C 80.523438 35.296875 80.179688 34.816406 80.179688 33.855469 C 80.179688 33.339844 80.871094 29.585938 82.253906 22.601562 C 82.355469 22.128906 82.578125 21.894531 82.921875 21.894531 C 83.367188 21.894531 83.703125 22.1875 83.925781 22.769531 C 84.046875 23.082031 84.109375 23.429688 84.109375 23.808594 C 84.109375 24.167969 84.0625 24.558594 83.960938 24.984375 L 83.367188 27.742188 L 83.554688 27.742188 C 85.679688 23.261719 87.632812 21.023438 89.414062 21.023438 C 90.402344 21.023438 91.058594 21.457031 91.378906 22.332031 C 91.503906 22.667969 91.566406 23.058594 91.566406 23.507812 C 91.566406 23.933594 91.429688 24.402344 91.15625 24.917969 C 90.6875 25.792969 89.984375 26.230469 89.042969 26.230469 C 88.84375 26.230469 88.683594 26.183594 88.5625 26.09375 C 88.460938 26.003906 88.398438 25.882812 88.375 25.726562 C 88.574219 25.726562 88.832031 25.398438 89.15625 24.75 C 89.476562 24.078125 89.660156 23.460938 89.710938 22.902344 C 89.761719 22.34375 89.550781 22.019531 89.082031 21.929688 C 88.214844 21.929688 87.1875 22.949219 86 24.984375 C 84.816406 27.023438 83.863281 28.972656 83.144531 30.832031 C 82.429688 32.691406 82.007812 33.898438 81.882812 34.457031 C 81.761719 35.019531 81.539062 35.296875 81.21875 35.296875 Z M 94.726562 35.332031 C 92.773438 35.332031 91.796875 34 91.796875 31.335938 C 91.796875 29.789062 92.242188 28.097656 93.132812 26.261719 C 94.371094 23.777344 95.941406 22.152344 97.84375 21.390625 C 98.511719 21.144531 99.179688 21.023438 99.847656 21.023438 C 100.539062 21.023438 101.082031 21.199219 101.480469 21.558594 C 101.875 21.917969 102.074219 22.320312 102.074219 22.769531 C 102.074219 22.96875 101.949219 23.070312 101.703125 23.070312 C 101.480469 23.046875 101.367188 22.9375 101.367188 22.734375 C 101.367188 22.535156 101.242188 22.355469 100.996094 22.199219 C 100.773438 22.019531 100.441406 21.929688 99.996094 21.929688 C 98.4375 21.929688 97.027344 23.195312 95.765625 25.726562 C 94.578125 28.078125 93.984375 30.304688 93.984375 32.410156 C 93.984375 33.707031 94.296875 34.359375 94.914062 34.359375 C 95.554688 34.359375 96.324219 33.875 97.214844 32.914062 C 98.128906 31.929688 98.96875 30.785156 99.734375 29.488281 C 101.390625 26.753906 102.367188 24.996094 102.664062 24.214844 C 102.960938 23.429688 103.285156 23.039062 103.628906 23.039062 C 104.25 23.039062 104.558594 23.507812 104.558594 24.449219 C 104.558594 24.738281 104.519531 25.074219 104.445312 25.457031 C 103.628906 29.039062 103.183594 31.109375 103.109375 31.671875 C 103.0625 32.230469 103.035156 32.632812 103.035156 32.878906 C 103.035156 33.953125 103.320312 34.492188 103.890625 34.492188 C 104.53125 34.492188 105.433594 33.71875 106.597656 32.175781 C 107.757812 30.628906 108.761719 29.082031 109.601562 27.539062 L 110.863281 25.222656 L 111.863281 25.222656 C 111.714844 25.488281 111.519531 25.859375 111.269531 26.328125 C 111.046875 26.777344 110.589844 27.59375 109.898438 28.78125 C 109.207031 29.945312 108.539062 30.976562 107.894531 31.871094 C 107.277344 32.769531 106.574219 33.585938 105.78125 34.324219 C 105.015625 35.042969 104.347656 35.398438 103.777344 35.398438 C 101.949219 35.398438 101.035156 34.191406 101.035156 31.769531 C 101.035156 30.964844 101.132812 30.023438 101.332031 28.949219 L 101.070312 28.949219 C 98.546875 33.203125 96.433594 35.332031 94.726562 35.332031 Z M 94.726562 35.332031 " fill="#001898"/>
</svg>
