<svg width="16" height="14" viewBox="0 0 16 14" fill="none" xmlns="http://www.w3.org/2000/svg">
<path d="M4.25 12.25H6.5781" stroke="#001898" stroke-width="1.5" stroke-linecap="round" stroke-linejoin="round"/>
<path d="M11.75 12.25H15.25" stroke="#001898" stroke-width="1.5" stroke-linecap="round" stroke-linejoin="round"/>
<path d="M1.75 9.25V1.75C1.75 1.19772 2.19772 0.75 2.75 0.75H12.25C12.8023 0.75 13.25 1.19772 13.25 1.75V12.25H10.5" stroke="#001898" stroke-width="1.5" stroke-linecap="round" stroke-linejoin="round"/>
<path d="M2.5 13.25C3.4665 13.25 4.25 12.4665 4.25 11.5C4.25 10.5335 3.4665 9.75 2.5 9.75C1.5335 9.75 0.75 10.5335 0.75 11.5C0.75 12.4665 1.5335 13.25 2.5 13.25Z" stroke="#001898" stroke-width="1.5" stroke-linecap="round" stroke-linejoin="round"/>
<path d="M8.5 13.25C9.4665 13.25 10.25 12.4665 10.25 11.5C10.25 10.5335 9.4665 9.75 8.5 9.75C7.5335 9.75 6.75 10.5335 6.75 11.5C6.75 12.4665 7.5335 13.25 8.5 13.25Z" stroke="#001898" stroke-width="1.5" stroke-linecap="round" stroke-linejoin="round"/>
<path d="M4.75 5.25H9.25" stroke="#001898" stroke-width="1.5" stroke-linecap="round" stroke-linejoin="round"/>
</svg>
